<svg width="1771" height="566" viewBox="0 0 1771 566" fill="none" xmlns="http://www.w3.org/2000/svg">
<mask id="mask0_4854_7162" style="mask-type:luminance" maskUnits="userSpaceOnUse" x="9" y="0" width="1761" height="366">
<path d="M9.51562 0H1769.64V365.333H9.51562V0Z" fill="white"/>
</mask>
<g mask="url(#mask0_4854_7162)">
<mask id="mask1_4854_7162" style="mask-type:luminance" maskUnits="userSpaceOnUse" x="9" y="0" width="1762" height="366">
<path d="M1770.85 0H9.51562V365.333H1770.85V0Z" fill="white"/>
</mask>
<g mask="url(#mask1_4854_7162)">
<mask id="mask2_4854_7162" style="mask-type:luminance" maskUnits="userSpaceOnUse" x="994" y="0" width="648" height="359">
<path d="M994.461 0H1641.12V358.667H994.461V0Z" fill="white"/>
</mask>
<g mask="url(#mask2_4854_7162)">
<path fill-rule="evenodd" clip-rule="evenodd" d="M1002.72 0.359944C1002.72 0.573485 1009.93 13.0474 1018.74 28.0839L1034.77 55.4172L1034.94 206.834L1035.12 358.251L1121.3 358.48C1226.46 358.761 1236.31 358.35 1264.45 352.521C1267.58 351.876 1271.1 351.079 1272.28 350.756C1273.45 350.433 1275.86 349.771 1277.62 349.287C1327.62 335.631 1366.35 302.839 1389.8 254.365C1396.4 240.709 1398.69 235.641 1398.69 234.766C1398.69 234.381 1399 233.511 1399.36 232.829C1399.73 232.152 1400.88 229.193 1401.91 226.261C1402.96 223.323 1403.98 220.438 1404.19 219.855C1405.16 217.209 1415.53 186.98 1419.34 175.74C1421.66 168.891 1426.3 155.282 1429.67 145.495C1433.02 135.714 1437.67 122.105 1439.99 115.256C1442.3 108.407 1446.64 95.761 1449.6 87.1516C1452.58 78.5422 1456.91 65.8964 1459.22 59.0422C1461.55 52.1933 1466.2 38.5891 1469.57 28.8027C1478.57 2.66203 1479.18 0.656818 1478.22 0.287026C1477.76 0.115152 1453.04 0.0578602 1423.27 0.156818L1369.14 0.33911L1366.51 8.17244C1365.05 12.4745 1363.84 15.9954 1363.82 15.9954C1363.79 15.9954 1334.27 103.803 1314.91 161.506C1299.74 206.725 1295.77 218.355 1294.37 221.636C1284.69 244.35 1277.77 255.313 1265.17 267.886C1254.18 278.855 1239.55 287.803 1225.99 291.844C1208.57 297.037 1191.29 298.834 1158.94 298.834C1145.4 298.834 1141.6 298.631 1140.97 297.876C1140.39 297.178 1140.13 256.803 1139.99 148.631L1139.82 0.33911L1071.27 0.162026C1033.56 0.0578602 1002.72 0.15161 1002.72 0.359944ZM1536.62 0.453693C1536.36 0.719318 1536.15 81.412 1536.15 179.771V358.605H1641.56L1641.38 179.475L1641.19 0.33911L1589.16 0.162026C1560.53 0.0578602 1536.89 0.193277 1536.62 0.453693ZM56.3906 3.01099C56.9583 3.89119 60.25 9.09432 63.6979 14.5735C67.1458 20.0527 75.2344 32.7766 81.6615 42.8443L93.3594 61.1568L191.771 61.3443L290.177 61.537L295.599 63.0839C312.307 67.8495 322.167 77.3547 326.958 93.3235C328.432 98.2245 328.542 100.214 328.818 126.792L329.109 155.047L327.443 155.433C326.536 155.641 279.635 155.922 223.234 156.053C145.104 156.23 119.833 156.495 117.12 157.162C115.156 157.641 111.312 158.516 108.573 159.105C82.5365 164.652 64.6979 181.162 56.0052 207.761C52.4844 218.511 52 220.709 48.0312 243.688C47.4219 247.214 46.625 251.693 46.25 253.657C45.8854 255.61 45.0885 260.094 44.4844 263.615C43.875 267.136 43.0469 271.777 42.6354 273.933C41.401 280.428 40.6354 284.719 39.8333 289.584C39.4115 292.131 38.7812 295.813 38.4271 297.771C38.0781 299.725 37.1354 305.167 36.3281 309.865C35.526 314.558 34.5521 320.167 34.1615 322.318C31.849 335.136 31.1979 338.756 30.5208 342.594C30.1042 344.943 29.4896 348.303 29.151 350.068C28.8125 351.829 28.3385 354.475 28.1042 355.943L27.6719 358.615L136.349 358.251L136.797 355.047C137.042 353.287 137.589 349.443 138.016 346.511C138.443 343.573 139.302 337.49 139.932 332.99C140.562 328.49 141.349 322.886 141.688 320.537C143.401 308.641 144.703 299.438 145.276 295.282C146.443 286.646 148.083 275.016 148.828 270.016C149.24 267.277 149.859 262.792 150.203 260.058C154.01 230.126 160.75 219.511 179.703 213.615C182.922 212.61 191.958 212.448 256.167 212.23L328.984 211.98L329.349 358.251H434.036V222.704C434.036 71.0943 434.365 81.3808 428.99 64.9485C419.38 35.6047 395.958 14.1412 365.036 6.32869C344.417 1.11515 354.51 1.40682 196.714 1.40682H55.349L56.3906 3.01099ZM496.24 2.65682C496.599 3.33911 503.578 16.7089 511.755 32.3599L526.625 60.8235L526.99 358.605H631.672L631.849 210.068L632.031 61.537L713.573 61.3495C804.682 61.1464 801.198 60.9797 812.208 66.0995C821.547 70.4433 829.531 79.0006 832.943 88.3183C836.557 98.2037 836.312 89.5422 836.745 228.745L837.141 358.251H941.828L942.031 229.105C942.24 95.5787 942.062 85.2818 939.359 72.6724C931.557 36.386 903.714 10.7922 864.557 3.93807C860.839 3.29224 856.057 2.45369 853.927 2.0839C845.818 0.667236 495.5 1.22453 496.24 2.65682Z" fill="white"/>
</g>
<mask id="mask3_4854_7162" style="mask-type:luminance" maskUnits="userSpaceOnUse" x="1707" y="0" width="61" height="61">
<path d="M1707.44 0H1767.93V60.5H1707.44V0Z" fill="white"/>
</mask>
<g mask="url(#mask3_4854_7162)">
<path d="M1738.39 0C1721.33 0 1707.44 13.8958 1707.44 30.9583C1707.44 48.0208 1721.33 61.9167 1738.39 61.9167C1755.45 61.9167 1769.35 48.0208 1769.35 30.9583C1769.35 13.8958 1755.45 0 1738.39 0ZM1738.39 6.19271C1752.11 6.19271 1763.16 17.2448 1763.16 30.9583C1763.16 44.6719 1752.11 55.724 1738.39 55.724C1724.68 55.724 1713.62 44.6719 1713.62 30.9583C1713.62 17.2448 1724.68 6.19271 1738.39 6.19271ZM1738.39 15.4948C1734.43 15.4948 1730.46 17.0052 1727.45 20.0156C1721.43 26.0313 1721.43 35.8854 1727.45 41.901C1733.47 47.9219 1743.32 47.9219 1749.34 41.901L1744.96 37.526C1741.31 41.1771 1735.48 41.1771 1731.83 37.526C1728.17 33.8698 1728.17 28.0417 1731.83 24.3906C1735.48 20.7396 1741.31 20.7396 1744.96 24.3906L1749.34 20.0156C1746.33 17.0052 1742.36 15.4948 1738.39 15.4948Z" fill="white"/>
</g>
<mask id="mask4_4854_7162" style="mask-type:luminance" maskUnits="userSpaceOnUse" x="29" y="0" width="424" height="359">
<path d="M29.3984 0H452.883V358.667H29.3984V0Z" fill="white"/>
</mask>
<g mask="url(#mask4_4854_7162)">
<path fill-rule="evenodd" clip-rule="evenodd" d="M1004.45 0.359944C1004.45 0.573485 1011.65 13.0474 1020.47 28.0839L1036.49 55.4172L1036.85 358.251L1123.03 358.48C1228.19 358.761 1238.03 358.35 1266.17 352.521C1269.31 351.876 1272.83 351.079 1274.01 350.756C1275.18 350.433 1277.59 349.771 1279.35 349.287C1329.34 335.631 1368.08 302.839 1391.52 254.365C1398.12 240.709 1400.42 235.641 1400.42 234.766C1400.42 234.381 1400.73 233.511 1401.09 232.829C1401.46 232.152 1402.61 229.193 1403.64 226.261C1404.68 223.323 1405.71 220.438 1405.91 219.855C1406.88 217.209 1417.26 186.98 1421.07 175.74C1423.38 168.891 1428.03 155.282 1431.39 145.495C1434.74 135.714 1439.39 122.105 1441.71 115.256C1444.03 108.407 1448.36 95.761 1451.33 87.1516C1454.3 78.5422 1458.63 65.8964 1460.95 59.0422C1463.27 52.1933 1467.92 38.5891 1471.29 28.8027C1480.29 2.66203 1480.9 0.656818 1479.95 0.287026C1479.49 0.115152 1454.76 0.0578602 1424.99 0.156818L1370.87 0.33911L1368.23 8.17244C1366.77 12.4745 1365.57 15.9954 1365.55 15.9954C1365.52 15.9954 1336 103.803 1316.64 161.506C1301.47 206.725 1297.5 218.355 1296.1 221.636C1286.41 244.35 1279.49 255.313 1266.89 267.886C1255.9 278.855 1241.27 287.803 1227.72 291.844C1210.29 297.037 1193.01 298.834 1160.66 298.834C1147.12 298.834 1143.33 298.631 1142.7 297.876C1142.12 297.178 1141.86 256.803 1141.72 148.631L1141.54 0.33911L1072.99 0.162026C1035.29 0.0578602 1004.45 0.15161 1004.45 0.359944ZM1538.35 0.453693C1538.09 0.719318 1537.87 81.412 1537.87 179.771V358.605H1643.28L1643.1 179.475L1642.92 0.33911L1590.88 0.162026C1562.25 0.0578602 1538.62 0.193277 1538.35 0.453693ZM58.112 3.01099C58.6849 3.89119 61.9766 9.09432 65.4245 14.5735C68.8724 20.0527 76.9557 32.7766 83.388 42.8443L95.0859 61.1568L193.492 61.3443L291.904 61.537L297.326 63.0839C314.034 67.8495 323.893 77.3547 328.685 93.3235C330.159 98.2245 330.268 100.214 330.539 126.792L330.831 155.047L329.169 155.433C328.258 155.641 281.362 155.922 224.956 156.053C146.826 156.23 121.555 156.495 118.841 157.162C116.883 157.641 113.034 158.516 110.294 159.105C84.263 164.652 66.4245 181.162 57.7266 207.761C54.2109 218.511 53.7266 220.709 49.7526 243.688C49.1484 247.214 48.3516 251.693 47.9766 253.657C47.612 255.61 46.8151 260.094 46.2109 263.615C45.6016 267.136 44.7734 271.777 44.362 273.933C43.1276 280.428 42.3568 284.719 41.5599 289.584C41.138 292.131 40.5078 295.813 40.1536 297.771C39.8047 299.725 38.8568 305.167 38.0547 309.865C37.2526 314.558 36.2786 320.167 35.888 322.318C33.5703 335.136 32.9245 338.756 32.2422 342.594C31.8307 344.943 31.2161 348.303 30.8776 350.068C30.5391 351.829 30.0651 354.475 29.8307 355.943L29.3984 358.615L83.737 358.433L138.07 358.251L138.518 355.047C138.768 353.287 139.315 349.443 139.742 346.511C140.169 343.573 141.029 337.49 141.659 332.99C142.284 328.49 143.076 322.886 143.414 320.537C145.128 308.641 146.43 299.438 146.997 295.282C148.169 286.646 149.81 275.016 150.555 270.016C150.966 267.277 151.581 262.792 151.93 260.058C155.737 230.126 162.477 219.511 181.43 213.615C184.643 212.61 193.685 212.448 257.893 212.23L330.706 211.98L330.893 285.115L331.07 358.251H435.763V222.704C435.763 71.0943 436.091 81.3808 430.711 64.9485C421.107 35.6047 397.685 14.1412 366.758 6.32869C346.143 1.11515 356.237 1.40682 198.44 1.40682H57.0755L58.112 3.01099ZM497.966 2.65682C498.32 3.33911 505.305 16.7089 513.482 32.3599L528.346 60.8235L528.534 209.714L528.716 358.605H633.393L633.576 210.068L633.753 61.537L715.299 61.3495C806.404 61.1464 802.924 60.9797 813.93 66.0995C823.268 70.4433 831.258 79.0006 834.664 88.3183C838.279 98.2037 838.039 89.5422 838.466 228.745L838.862 358.251H943.555L943.753 229.105C943.961 95.5787 943.789 85.2818 941.086 72.6724C933.284 36.386 905.44 10.7922 866.279 3.93807C862.565 3.29224 857.784 2.45369 855.654 2.0839C847.539 0.667236 497.221 1.22453 497.966 2.65682Z" fill="white"/>
</g>
<mask id="mask5_4854_7162" style="mask-type:luminance" maskUnits="userSpaceOnUse" x="476" y="0" width="485" height="360">
<path d="M476.906 0H960.891V359.63H476.906V0Z" fill="white"/>
</mask>
<g mask="url(#mask5_4854_7162)">
<path fill-rule="evenodd" clip-rule="evenodd" d="M1012.54 0.469419C1012.54 1.00067 1026.09 24.8236 1039.32 47.584L1043.29 54.3965V360.136L1134.32 359.839C1227.98 359.532 1229 359.506 1249.81 356.521C1319.09 346.594 1364.92 312.318 1393.83 248.834C1399.81 235.678 1400.56 233.709 1409.85 206.522C1414.58 192.673 1423.23 167.495 1429.08 150.574C1434.93 133.647 1443.59 108.469 1448.33 94.6257C1453.05 80.7767 1458.35 65.3548 1460.09 60.3548C1474.28 19.4642 1480.35 1.28192 1479.95 0.880877C1479.4 0.318377 1370.23 0.422544 1369.77 0.990253C1369.49 1.32879 1368.74 3.17775 1368.12 5.09963C1366.25 10.8288 1345.29 74.9955 1342.06 84.8288C1338.27 96.433 1329.29 124.386 1322.87 144.626C1320.13 153.282 1316.97 163.042 1315.85 166.308C1314.74 169.579 1311.25 180.277 1308.11 190.089C1298.95 218.683 1298.67 219.49 1294.9 228.964C1277.22 273.365 1248.78 294.506 1200.01 299.495C1184.1 301.126 1151.62 301.042 1149.59 299.365L1148.11 298.141L1147.94 149.178L1147.77 0.209003L1080.16 0.0267108C1041.16 -0.0722474 1012.54 0.110044 1012.54 0.469419ZM1568.83 0.0631692C1568.56 0.334003 1568.16 82.4069 1568.16 182.162V363.532H1603.44L1646.43 363.152V0.182961H1604.42C1585.91 0.0631692 1571.52 0.0631692 1570.25 0.0631692C1568.99 0.0631692 1568.83 0.0631692 1568.83 0.0631692ZM39.6896 1.23504C39.6896 1.61004 41.1271 4.209 42.8875 7.00588C47.9812 15.1153 63.9708 40.2767 70.3094 50.1569L76.1166 59.209L174.445 59.4903C282.695 59.7975 275.486 59.5007 286.268 64.0996C298.877 69.4798 308.091 80.1361 311.226 92.9538C312.377 97.683 314.221 149.964 313.356 153.423L312.929 155.115L220.861 155.152C126.143 155.178 102.83 155.615 93.1531 157.532C57.1166 164.667 38.6271 187.772 31.0125 235.199C30.0177 241.402 26.9344 259.318 24.2781 274.36C23.5281 278.594 22.1531 286.459 21.2208 291.844C20.2937 297.23 18.5489 307.147 17.351 313.881C16.1427 320.61 14.3927 330.522 13.45 335.907C12.5073 341.292 11.1479 348.943 10.4187 352.917C9.31456 358.954 9.25727 360.199 10.0593 360.511C11.1531 360.928 117.21 360.324 117.637 359.896C117.789 359.745 118.716 353.657 119.7 346.365C120.684 339.079 122.721 324.61 124.236 314.225C128.033 288.147 130.335 271.417 131.273 263.167C134.872 231.454 141.398 219.917 159.2 213.808C164.179 212.105 229.992 210.792 288.778 211.235L313.304 211.417L313.658 285.673C313.846 326.506 314.158 360.021 314.351 360.152C314.544 360.282 338.08 360.303 366.643 360.199L418.58 360.016L418.257 221.725C417.919 76.4434 417.976 78.8861 414.648 68.2038C401.414 25.7298 370.523 3.80796 320.294 1.24025C302.966 0.354836 39.6896 0.349628 39.6896 1.23504ZM840.611 134.136C840.611 207.605 840.351 267.719 840.033 267.719C839.716 267.719 837.044 264.178 834.101 259.85C831.153 255.522 826.867 249.308 824.575 246.037C818.216 236.964 805.184 218.016 790.664 196.73C786.2 190.193 779.518 180.438 775.809 175.048C772.096 169.667 766.528 161.579 763.429 157.079C760.33 152.579 753.804 143.136 748.924 136.094C744.049 129.058 738.101 120.464 735.716 117.001C733.335 113.542 727.226 104.73 722.143 97.4173C710.231 80.2819 706.497 74.8913 701.799 68.0475C699.684 64.9694 695.002 58.2038 691.393 53.0111C687.789 47.8132 682.731 40.4903 680.158 36.7298C668.684 19.9434 666.127 17.3653 655.32 11.7403C645.153 6.44859 634.283 3.40171 620.466 1.96421C613.544 1.25067 483.486 0.943377 483.486 1.6465C483.486 2.27671 494.924 24.7923 504.221 42.4538L512.841 58.8184V197.714C512.841 274.1 513.049 342.037 513.299 348.673V360.303L565.888 360.568L618.018 360.386L618.195 235.37C618.304 158.199 618.622 110.36 619.028 110.36C619.388 110.36 620.82 112.011 622.21 114.032C623.601 116.048 631.492 127.459 639.747 139.381C648.007 151.308 660.804 169.803 668.19 180.485C675.575 191.173 685.549 205.558 690.351 212.454C695.158 219.355 700.877 227.605 703.054 230.798C705.236 233.985 709.325 239.923 712.143 243.985C714.955 248.053 723.393 260.266 730.893 271.131C738.382 282.001 746.721 294.001 749.408 297.808C752.101 301.61 756.028 307.266 758.148 310.365C774.596 334.495 779.794 341.053 786.492 346.131C794.195 351.969 810.065 357.657 823.492 359.391C829.299 360.141 946.148 360.136 946.148 360.136C946.148 360.136 946.148 358.105 946.148 328.204C946.148 321.798 946.148 315.391 946.148 310.407V0.557961H840.611V134.136Z" fill="white"/>
</g>
</g>
</g>
<mask id="mask6_4854_7162" style="mask-type:luminance" maskUnits="userSpaceOnUse" x="540" y="475" width="1102" height="18">
<path d="M540.469 475.827H1641.7V492.634H540.469V475.827Z" fill="white"/>
</mask>
<g mask="url(#mask6_4854_7162)">
<mask id="mask7_4854_7162" style="mask-type:luminance" maskUnits="userSpaceOnUse" x="540" y="474" width="1103" height="20">
<path d="M1642.7 474.638H540.031V493.304H1642.7V474.638Z" fill="white"/>
</mask>
<g mask="url(#mask7_4854_7162)">
<mask id="mask8_4854_7162" style="mask-type:luminance" maskUnits="userSpaceOnUse" x="540" y="475" width="1102" height="18">
<path d="M540.469 475.827H1641.7V492.634H540.469V475.827Z" fill="white"/>
</mask>
<g mask="url(#mask8_4854_7162)">
<path d="M540.469 475.827V492.634H1641.7V475.827H540.469Z" fill="white"/>
</g>
</g>
</g>
<mask id="mask9_4854_7162" style="mask-type:luminance" maskUnits="userSpaceOnUse" x="28" y="433" width="470" height="106">
<path d="M497.435 433.346H28.1016V538.679H497.435V433.346Z" fill="white"/>
</mask>
<g mask="url(#mask9_4854_7162)">
<path d="M77.0938 510.994L61.7708 487.838C69.5208 487.156 76.5 481.536 76.5 471.323C76.5 460.849 69.0938 454.208 58.7083 454.208H35.8906V510.994H42.9583V488.432H54.2812L68.75 510.994H77.0938ZM69.1771 471.323C69.1771 477.708 64.5833 482.218 57.8542 482.218H42.9583V460.51H57.8542C64.5833 460.51 69.1771 464.937 69.1771 471.323Z" fill="white"/>
<path d="M92.0938 482.659C92.0938 499.43 103.417 512.029 120.271 512.029C137.042 512.029 148.453 499.43 148.453 482.659C148.453 465.888 137.042 453.289 120.271 453.289C103.417 453.289 92.0938 465.888 92.0938 482.659ZM141.13 482.659C141.13 495.852 132.958 505.732 120.271 505.732C107.5 505.732 99.4115 495.852 99.4115 482.659C99.4115 469.378 107.5 459.586 120.271 459.586C132.958 459.586 141.13 469.378 141.13 482.659Z" fill="white"/>
<path d="M192.341 510.994C202.727 510.994 208.773 504.781 208.773 495.672C208.773 488.859 203.747 482.646 197.706 481.708C202.898 480.604 207.664 475.833 207.664 468.682C207.664 460.172 201.622 454.208 191.747 454.208H166.461V510.994H192.341ZM173.529 460.51H190.555C196.94 460.51 200.346 464.599 200.346 469.703C200.346 474.896 196.94 478.812 190.555 478.812H173.529V460.51ZM173.529 485.114H190.893C197.878 485.114 201.451 489.713 201.451 494.906C201.451 500.948 197.534 504.692 190.893 504.692H173.529V485.114Z" fill="white"/>
<path d="M224.398 482.659C224.398 499.43 235.721 512.029 252.576 512.029C269.346 512.029 280.758 499.43 280.758 482.659C280.758 465.888 269.346 453.289 252.576 453.289C235.721 453.289 224.398 465.888 224.398 482.659ZM273.435 482.659C273.435 495.852 265.263 505.732 252.576 505.732C239.805 505.732 231.716 495.852 231.716 482.659C231.716 469.378 239.805 459.586 252.576 459.586C265.263 459.586 273.435 469.378 273.435 482.659Z" fill="white"/>
<path d="M319.906 510.994V460.51H337.953V454.208H294.875V460.51H312.839V510.994H319.906Z" fill="white"/>
<path d="M361.185 510.994V454.208H354.117V510.994H361.185Z" fill="white"/>
<path d="M408.13 512.029C418.432 512.029 425.245 507.263 430.01 500.794L423.969 497.471C420.729 502.326 414.859 505.732 408.13 505.732C395.958 505.732 386.505 496.107 386.505 482.659C386.505 469.122 395.958 459.586 408.13 459.586C414.859 459.586 420.729 463.076 423.969 467.846L429.927 464.523C425.411 458.138 418.432 453.289 408.13 453.289C392.042 453.289 379.188 465.206 379.188 482.659C379.188 500.112 392.042 512.029 408.13 512.029Z" fill="white"/>
<path d="M442.32 503.028C447.003 508.309 454.242 512.054 464.117 512.054C479.44 512.054 485.06 503.627 485.06 495.366C485.06 483.45 474.503 480.554 465.221 478.085C457.987 476.127 451.43 474.424 451.43 468.72C451.43 463.356 456.284 459.694 463.096 459.694C469.31 459.694 475.268 461.825 479.523 466.507L483.784 461.314C479.013 456.293 472.289 453.397 463.607 453.397C452.451 453.397 444.107 459.783 444.107 469.147C444.107 480.299 454.242 482.856 463.352 485.236C470.841 487.283 477.737 489.153 477.737 495.965C477.737 500.304 474.503 505.757 464.372 505.757C456.367 505.757 450.237 501.84 446.492 497.668L442.32 503.028Z" fill="white"/>
</g>
</svg>
