<svg width="390" height="391" viewBox="0 0 390 391" fill="none" xmlns="http://www.w3.org/2000/svg">
<mask id="mask0_4949_8186" style="mask-type:luminance" maskUnits="userSpaceOnUse" x="0" y="0" width="390" height="391">
<path d="M59.849 0H330.125C363.177 0 389.974 26.7969 389.974 59.849V330.234C389.974 363.292 363.177 390.083 330.125 390.083H59.849C26.7969 390.083 0 363.292 0 330.234V59.849C0 26.7969 26.7969 0 59.849 0Z" fill="white"/>
</mask>
<g mask="url(#mask0_4949_8186)">
<mask id="mask1_4949_8186" style="mask-type:luminance" maskUnits="userSpaceOnUse" x="0" y="-1" width="391" height="392">
<path d="M376.667 -0.5H14C6.26801 -0.5 0 5.76801 0 13.5V376.167C0 383.899 6.26801 390.167 14 390.167H376.667C384.399 390.167 390.667 383.899 390.667 376.167V13.5C390.667 5.76801 384.399 -0.5 376.667 -0.5Z" fill="white"/>
</mask>
<g mask="url(#mask1_4949_8186)">
<mask id="mask2_4949_8186" style="mask-type:luminance" maskUnits="userSpaceOnUse" x="0" y="0" width="390" height="391">
<path d="M0 14C0 6.268 6.26801 0 14 0H375.974C383.706 0 389.974 6.26801 389.974 14V376.167C389.974 383.899 383.706 390.167 375.974 390.167H14C6.26803 390.167 0 383.899 0 376.167V14Z" fill="white"/>
</mask>
<g mask="url(#mask2_4949_8186)">
<mask id="mask3_4949_8186" style="mask-type:luminance" maskUnits="userSpaceOnUse" x="0" y="0" width="390" height="391">
<path d="M59.849 0H330.125C363.177 0 389.974 26.7969 389.974 59.849V330.234C389.974 363.292 363.177 390.083 330.125 390.083H59.849C26.7969 390.083 0 363.292 0 330.234V59.849C0 26.7969 26.7969 0 59.849 0Z" fill="white"/>
</mask>
<g mask="url(#mask3_4949_8186)">
<path d="M0 14C0 6.26803 6.26801 0 14 0H375.974C383.706 0 389.974 6.26801 389.974 14V375.974C389.974 383.706 383.706 389.974 375.974 389.974H14C6.26803 389.974 0 383.706 0 375.974V14Z" fill="black"/>
</g>
</g>
<mask id="mask4_4949_8186" style="mask-type:luminance" maskUnits="userSpaceOnUse" x="89" y="115" width="215" height="159">
<path d="M89 115H303.453V273.599H89V115Z" fill="white"/>
</mask>
<g mask="url(#mask4_4949_8186)">
<mask id="mask5_4949_8186" style="mask-type:luminance" maskUnits="userSpaceOnUse" x="-119" y="115" width="727" height="161">
<path fill-rule="evenodd" clip-rule="evenodd" d="M326.48 115.21C326.48 115.444 332.487 125.955 338.359 136.002L340.117 139.007V273.944L380.466 273.819C421.993 273.679 422.443 273.663 431.674 272.351C462.39 267.971 482.714 252.84 495.524 224.825C498.177 219.017 498.506 218.148 502.625 206.148C504.723 200.038 508.564 188.924 511.154 181.46C513.749 173.986 517.58 162.877 519.683 156.767C521.776 150.653 524.126 143.846 524.9 141.637C531.195 123.59 533.88 115.569 533.702 115.392C533.461 115.142 485.063 115.189 484.849 115.439C484.734 115.585 484.399 116.403 484.127 117.257C483.3 119.783 474.007 148.096 472.573 152.444C470.888 157.559 466.911 169.898 464.065 178.83C462.845 182.653 461.443 186.96 460.956 188.398C460.464 189.846 458.915 194.564 457.518 198.898C453.458 211.512 453.337 211.872 451.668 216.054C443.819 235.653 431.213 244.981 409.597 247.184C402.538 247.898 388.143 247.866 387.238 247.122L386.583 246.585L386.51 180.835L386.437 115.096L356.459 115.017C339.17 114.971 326.48 115.049 326.48 115.21ZM573.109 115.033C572.994 115.148 572.811 151.372 572.811 195.398V275.444H588.457L607.509 275.278V115.08H588.891C580.686 115.033 574.303 115.033 573.743 115.033C573.183 115.033 573.109 115.033 573.109 115.033ZM-104.828 115.549C-104.828 115.71 -104.195 116.861 -103.41 118.096C-101.154 121.674 -94.0641 132.773 -91.2541 137.137L-88.6744 141.132L-45.0805 141.257C2.90894 141.387 -0.283024 141.262 4.49446 143.293C10.0883 145.663 14.1698 150.366 15.5512 156.028C16.0693 158.111 16.8908 181.184 16.4984 182.715L16.31 183.465L-24.5053 183.481C-66.498 183.486 -76.8379 183.679 -81.1235 184.528C-97.1043 187.679 -105.294 197.877 -108.674 218.804C-109.113 221.543 -110.479 229.45 -111.662 236.09C-111.997 237.955 -112.604 241.429 -113.017 243.809C-113.425 246.179 -114.2 250.559 -114.739 253.528C-115.267 256.497 -116.042 260.872 -116.46 263.252C-116.874 265.632 -117.486 269.007 -117.805 270.762C-118.297 273.424 -118.323 273.971 -117.962 274.111C-117.475 274.293 -70.454 274.028 -70.2656 273.84C-70.2028 273.773 -69.7894 271.09 -69.3551 267.872C-68.9156 264.653 -68.0208 258.267 -67.3457 253.684C-65.6608 242.174 -64.6352 234.788 -64.2218 231.153C-62.631 217.148 -59.7321 212.064 -51.8464 209.366C-49.6329 208.611 -20.4552 208.033 5.6038 208.226L16.4722 208.309L16.6292 241.08C16.7181 259.101 16.8594 273.898 16.9431 273.95C17.0269 274.012 27.4609 274.017 40.1241 273.971L63.1534 273.898L63.0121 212.861C62.8551 148.741 62.8865 149.814 61.4109 145.106C55.5398 126.361 41.8457 116.679 19.5752 115.549C11.8883 115.158 -104.828 115.158 -104.828 115.549ZM250.255 174.205C250.255 206.632 250.14 233.158 249.999 233.158C249.857 233.158 248.669 231.596 247.367 229.684C246.064 227.778 244.164 225.033 243.149 223.585C240.329 219.585 234.552 211.221 228.11 201.825C226.132 198.944 223.176 194.637 221.527 192.257C219.884 189.887 217.409 186.314 216.043 184.325C214.667 182.346 211.774 178.179 209.607 175.069C207.446 171.955 204.814 168.174 203.752 166.637C202.695 165.116 199.984 161.221 197.739 157.997C192.449 150.429 190.801 148.059 188.718 145.033C187.781 143.674 185.704 140.689 184.103 138.398C182.502 136.101 180.257 132.877 179.121 131.21C174.035 123.804 172.905 122.668 168.106 120.179C163.601 117.846 158.782 116.502 152.659 115.872C149.593 115.554 91.923 115.413 91.923 115.731C91.923 116.007 96.9987 125.939 101.122 133.736L104.942 140.96V202.262C104.942 235.971 105.036 265.96 105.146 268.887V274.017L128.458 274.137L151.576 274.059L151.649 218.882C151.696 184.825 151.838 163.71 152.021 163.71C152.178 163.71 152.816 164.439 153.434 165.325C154.051 166.221 157.547 171.257 161.204 176.512C164.867 181.778 170.545 189.939 173.815 194.658C177.086 199.377 181.507 205.721 183.642 208.767C185.772 211.809 188.305 215.455 189.273 216.861C190.241 218.267 192.051 220.887 193.302 222.684C194.553 224.476 198.294 229.872 201.612 234.668C204.94 239.46 208.634 244.757 209.827 246.434C211.015 248.116 212.757 250.611 213.699 251.981C220.988 262.632 223.291 265.523 226.268 267.762C229.68 270.34 236.713 272.856 242.668 273.616C245.242 273.95 297.046 273.944 297.046 273.944C297.046 273.944 297.046 273.049 297.046 259.856C297.046 257.023 297.046 254.194 297.046 251.997V115.252H250.255V174.205Z" fill="white"/>
</mask>
<g mask="url(#mask5_4949_8186)">
<path d="M89 115V273.599H303.453V115H89Z" fill="white"/>
</g>
</g>
</g>
</g>
</svg>
